<mxfile>
  <diagram id="2vBaDHlcBeLouAFchdph" name="Page-1">
    <mxGraphModel dx="1452" dy="851" grid="1" gridSize="10" guides="1" tooltips="1" connect="1" arrows="1" fold="1" page="1" pageScale="1" pageWidth="850" pageHeight="1100" background="#ffffff" math="0" shadow="0">
      <root>
        <mxCell id="0" />
        <mxCell id="1" parent="0" />
        <mxCell id="5" value="" style="image;aspect=fixed;html=1;points=[];align=center;fontSize=12;image=img/lib/azure2/other/Azure_A.svg;" parent="1" vertex="1">
          <mxGeometry x="441" y="20" width="38" height="35.83" as="geometry" />
        </mxCell>
        <mxCell id="7" value="" style="rounded=0;whiteSpace=wrap;html=1;fillStyle=hatch;glass=0;shadow=0;fillColor=none;strokeWidth=2;" parent="1" vertex="1">
          <mxGeometry x="160" y="80" width="620" height="650" as="geometry" />
        </mxCell>
        <mxCell id="8" value="" style="rounded=0;whiteSpace=wrap;html=1;fillColor=none;" parent="1" vertex="1">
          <mxGeometry x="210" y="200" width="120" height="480" as="geometry" />
        </mxCell>
        <mxCell id="9" value="" style="rounded=0;whiteSpace=wrap;html=1;fillColor=none;" parent="1" vertex="1">
          <mxGeometry x="440" y="200" width="320" height="480" as="geometry" />
        </mxCell>
        <mxCell id="50" style="edgeStyle=none;html=1;entryX=0;entryY=0.5;entryDx=0;entryDy=0;" parent="1" source="10" target="16" edge="1">
          <mxGeometry relative="1" as="geometry" />
        </mxCell>
        <mxCell id="10" value="User / Browser" style="image;aspect=fixed;html=1;points=[];align=center;fontSize=12;image=img/lib/azure2/general/Browser.svg;" parent="1" vertex="1">
          <mxGeometry x="40" y="293" width="65" height="52" as="geometry" />
        </mxCell>
        <mxCell id="11" value="vnet-hub" style="image;aspect=fixed;html=1;points=[];align=center;fontSize=12;image=img/lib/azure2/networking/Virtual_Networks.svg;" parent="1" vertex="1">
          <mxGeometry x="236.5" y="130" width="67" height="40" as="geometry" />
        </mxCell>
        <mxCell id="12" value="vnet-spoke" style="image;aspect=fixed;html=1;points=[];align=center;fontSize=12;image=img/lib/azure2/networking/Virtual_Networks.svg;" parent="1" vertex="1">
          <mxGeometry x="560" y="130" width="67" height="40" as="geometry" />
        </mxCell>
        <mxCell id="13" value="Firewall" style="image;aspect=fixed;html=1;points=[];align=center;fontSize=12;image=img/lib/azure2/networking/Firewalls.svg;" parent="1" vertex="1">
          <mxGeometry x="234.5" y="276" width="71" height="60" as="geometry" />
        </mxCell>
        <mxCell id="14" value="Front Door" style="image;aspect=fixed;html=1;points=[];align=center;fontSize=12;image=img/lib/azure2/networking/Front_Doors.svg;opacity=50;" parent="1" vertex="1">
          <mxGeometry x="237.5" y="588" width="68" height="60" as="geometry" />
        </mxCell>
        <mxCell id="15" value="subnet" style="image;aspect=fixed;html=1;points=[];align=center;fontSize=12;image=img/lib/azure2/networking/Subnet.svg;" parent="1" vertex="1">
          <mxGeometry x="246.5" y="220" width="44" height="26.35" as="geometry" />
        </mxCell>
        <mxCell id="16" value="" style="rounded=0;whiteSpace=wrap;html=1;fillColor=none;dashed=1;" parent="1" vertex="1">
          <mxGeometry x="223" y="270" width="91" height="98" as="geometry" />
        </mxCell>
        <mxCell id="19" value="" style="edgeStyle=none;html=1;entryX=0.011;entryY=0.417;entryDx=0;entryDy=0;entryPerimeter=0;" parent="1" source="17" target="9" edge="1">
          <mxGeometry relative="1" as="geometry" />
        </mxCell>
        <mxCell id="20" value="" style="edgeStyle=none;html=1;entryX=0.985;entryY=0.418;entryDx=0;entryDy=0;entryPerimeter=0;" parent="1" source="17" target="8" edge="1">
          <mxGeometry relative="1" as="geometry" />
        </mxCell>
        <mxCell id="17" value="VNET Peering" style="image;aspect=fixed;html=1;points=[];align=center;fontSize=12;image=img/lib/azure2/networking/Virtual_Networks_Classic.svg;" parent="1" vertex="1">
          <mxGeometry x="354" y="380" width="67" height="40" as="geometry" />
        </mxCell>
        <mxCell id="21" value="" style="rounded=0;whiteSpace=wrap;html=1;fillColor=none;dashed=1;" parent="1" vertex="1">
          <mxGeometry x="460" y="270" width="280" height="130" as="geometry" />
        </mxCell>
        <mxCell id="24" value="cae-subnet" style="image;aspect=fixed;html=1;points=[];align=center;fontSize=12;image=img/lib/azure2/networking/Subnet.svg;" parent="1" vertex="1">
          <mxGeometry x="571.5" y="220" width="44" height="26.35" as="geometry" />
        </mxCell>
        <mxCell id="25" value="psql-subnet" style="image;aspect=fixed;html=1;points=[];align=center;fontSize=12;image=img/lib/azure2/networking/Subnet.svg;" parent="1" vertex="1">
          <mxGeometry x="469" y="496.83" width="44" height="26.35" as="geometry" />
        </mxCell>
        <mxCell id="26" value="sa-subnet" style="image;aspect=fixed;html=1;points=[];align=center;fontSize=12;image=img/lib/azure2/networking/Subnet.svg;" parent="1" vertex="1">
          <mxGeometry x="683" y="496.83" width="44" height="26.35" as="geometry" />
        </mxCell>
        <mxCell id="28" value="" style="rounded=0;whiteSpace=wrap;html=1;fillColor=none;dashed=1;" parent="1" vertex="1">
          <mxGeometry x="445.5" y="550" width="91" height="98" as="geometry" />
        </mxCell>
        <mxCell id="29" value="" style="rounded=0;whiteSpace=wrap;html=1;fillColor=none;dashed=1;" parent="1" vertex="1">
          <mxGeometry x="659.5" y="550" width="91" height="98" as="geometry" />
        </mxCell>
        <mxCell id="30" value="Container&amp;nbsp;&lt;div&gt;App1&lt;/div&gt;" style="image;aspect=fixed;html=1;points=[];align=center;fontSize=12;image=img/lib/azure2/containers/Container_Instances.svg;" parent="1" vertex="1">
          <mxGeometry x="571" y="299" width="46" height="49.59" as="geometry" />
        </mxCell>
        <mxCell id="31" value="PostgreSQL" style="image;aspect=fixed;html=1;points=[];align=center;fontSize=12;image=img/lib/azure2/databases/Azure_Database_PostgreSQL_Server.svg;" parent="1" vertex="1">
          <mxGeometry x="469" y="560" width="48" height="64" as="geometry" />
        </mxCell>
        <mxCell id="32" value="Storage&amp;nbsp;&lt;div&gt;Account&lt;/div&gt;" style="image;aspect=fixed;html=1;points=[];align=center;fontSize=12;image=img/lib/azure2/storage/Storage_Accounts.svg;" parent="1" vertex="1">
          <mxGeometry x="672.5" y="560" width="65" height="52" as="geometry" />
        </mxCell>
        <mxCell id="33" value="API Management" style="image;aspect=fixed;html=1;points=[];align=center;fontSize=12;image=img/lib/azure2/integration/API_Management_Services.svg;opacity=50;" parent="1" vertex="1">
          <mxGeometry x="350.5" y="490" width="65" height="60" as="geometry" />
        </mxCell>
        <mxCell id="34" value="Internal&amp;nbsp;&lt;div&gt;Load Balancer&lt;/div&gt;" style="image;aspect=fixed;html=1;points=[];align=center;fontSize=12;image=img/lib/azure2/networking/Load_Balancers.svg;opacity=50;" parent="1" vertex="1">
          <mxGeometry x="347" y="588" width="72" height="72" as="geometry" />
        </mxCell>
        <mxCell id="36" value="" style="edgeStyle=none;html=1;" parent="1" source="35" target="30" edge="1">
          <mxGeometry relative="1" as="geometry" />
        </mxCell>
        <mxCell id="35" value="Private&amp;nbsp;&lt;div&gt;Endpoint&lt;/div&gt;" style="image;aspect=fixed;html=1;points=[];align=center;fontSize=12;image=img/lib/azure2/networking/Private_Endpoint.svg;" parent="1" vertex="1">
          <mxGeometry x="576" y="440" width="36" height="33" as="geometry" />
        </mxCell>
        <mxCell id="39" style="edgeStyle=entityRelationEdgeStyle;html=1;entryX=0.992;entryY=0.55;entryDx=0;entryDy=0;entryPerimeter=0;" parent="1" source="35" target="31" edge="1">
          <mxGeometry relative="1" as="geometry" />
        </mxCell>
        <mxCell id="40" style="edgeStyle=entityRelationEdgeStyle;html=1;entryX=-0.02;entryY=0.631;entryDx=0;entryDy=0;entryPerimeter=0;" parent="1" source="35" target="32" edge="1">
          <mxGeometry relative="1" as="geometry" />
        </mxCell>
        <mxCell id="43" value="Container&amp;nbsp;&lt;div&gt;App 2&lt;/div&gt;" style="image;aspect=fixed;html=1;points=[];align=center;fontSize=12;image=img/lib/azure2/containers/Container_Instances.svg;opacity=50;" parent="1" vertex="1">
          <mxGeometry x="659.5" y="299" width="46" height="49.59" as="geometry" />
        </mxCell>
        <mxCell id="44" value="Container&amp;nbsp;&lt;div&gt;App3&lt;/div&gt;" style="image;aspect=fixed;html=1;points=[];align=center;fontSize=12;image=img/lib/azure2/containers/Container_Instances.svg;opacity=50;" parent="1" vertex="1">
          <mxGeometry x="490.5" y="299" width="46" height="49.59" as="geometry" />
        </mxCell>
        <mxCell id="47" value="ℹ️&amp;nbsp;&amp;nbsp;Faded resources indicate alternative resources that can be utilized." style="text;html=1;align=center;verticalAlign=middle;resizable=0;points=[];autosize=1;strokeColor=none;fillColor=none;fontStyle=1;fontColor=light-dark(#990000,#FFA3A3);fontFamily=Verdana;" parent="1" vertex="1">
          <mxGeometry x="245" y="740" width="450" height="30" as="geometry" />
        </mxCell>
        <mxCell id="48" value="&lt;b&gt;&lt;font style=&quot;font-size: 16px;&quot;&gt;Sample Hub-Spoke Architecture&lt;/font&gt;&lt;/b&gt;&lt;div&gt;&lt;b&gt;&lt;font style=&quot;font-size: 16px;&quot;&gt;&amp;nbsp;for Azure Container Apps&lt;/font&gt;&lt;/b&gt;&lt;/div&gt;" style="text;html=1;align=center;verticalAlign=middle;resizable=0;points=[];autosize=1;strokeColor=none;fillColor=none;fontFamily=Verdana;" parent="1" vertex="1">
          <mxGeometry x="13.5" y="12.910000000000041" width="310" height="50" as="geometry" />
        </mxCell>
        <mxCell id="51" style="edgeStyle=none;html=1;entryX=-0.002;entryY=0.372;entryDx=0;entryDy=0;entryPerimeter=0;dashed=1;dashPattern=8 8;" parent="1" source="16" target="21" edge="1">
          <mxGeometry relative="1" as="geometry" />
        </mxCell>
      </root>
    </mxGraphModel>
  </diagram>
</mxfile>
